<svg width="454" height="101" viewBox="0 0 454 101" fill="none" xmlns="http://www.w3.org/2000/svg">
<path d="M30.561 40.6606C32.0948 40.6606 33.4582 40.3131 34.6511 39.6181C35.8867 38.8796 36.8453 37.9239 37.527 36.751C38.2087 35.5781 38.5495 34.2314 38.5495 32.711C38.5495 31.1471 38.2087 29.7353 37.527 28.4755C36.8879 27.2157 35.9719 26.2383 34.779 25.5432C33.586 24.8047 32.2013 24.4355 30.6249 24.4355C29.1764 24.4355 27.8982 24.783 26.7905 25.4781C25.6827 26.1731 24.8093 27.1505 24.1702 28.4103C23.5311 29.6267 23.2116 31.0602 23.2116 32.711C23.2116 34.1011 23.5311 35.4043 24.1702 36.6206C24.8519 37.7935 25.7466 38.771 26.8544 39.5529C27.9621 40.2914 29.1977 40.6606 30.561 40.6606Z" fill="#39A0FF"/>
<path fill-rule="evenodd" clip-rule="evenodd" d="M0 0H49.5287C76.0003 0 97.4598 21.8803 97.4598 48.871V101H47.931C21.4595 101 0 79.1197 0 52.129V0ZM27.1739 62.8806L27.4295 63.5323H35.3541L40.7224 52.1942C41.8727 49.805 42.8314 47.6763 43.5983 45.8084C44.4078 43.897 45.0468 42.1593 45.5155 40.5955C46.0268 39.0316 46.3889 37.5981 46.6019 36.2948C46.8576 34.9482 46.9854 33.6667 46.9854 32.4503C46.9854 30.3217 46.5593 28.3452 45.7072 26.5206C44.8977 24.6527 43.7687 23.0019 42.3201 21.5684C40.9141 20.1348 39.2525 19.0271 37.3353 18.2452C35.418 17.4198 33.373 17.0071 31.2001 17.0071C28.1751 17.0071 25.4484 17.7456 23.0199 19.2226C20.5914 20.6561 18.6741 22.6327 17.2682 25.1523C15.9048 27.6284 15.2231 30.4086 15.2231 33.4929C15.2231 36.0994 15.8409 38.5103 17.0764 40.7258C18.312 42.8979 19.9523 44.6572 21.9974 46.0039C24.0424 47.3071 26.2792 47.9587 28.7077 47.9587C30.3267 47.9587 31.9457 47.5895 33.5647 46.851C34.0768 46.6234 34.5748 46.3668 35.0586 46.0815L27.1739 62.8806ZM50.8341 79.8877C53.3478 81.2344 56.1385 81.9077 59.2061 81.9077C62.2737 81.9077 65.043 81.2127 67.5141 79.8226C69.9852 78.389 71.9238 76.4776 73.3297 74.0884C74.7783 71.6557 75.5026 68.9406 75.5026 65.9432C75.5026 62.9892 74.8635 60.3828 73.5854 58.1239C72.3072 55.8215 70.5817 54.0187 68.4088 52.7155C66.2359 51.4123 63.7648 50.7606 60.9955 50.7606C59.8025 50.7606 58.5457 50.9127 57.2249 51.2168C56.1107 51.4819 55.0773 51.813 54.125 52.2101L55.4043 43.2019H73.9049V35.7084H49.2364L46.6162 55.3219L50.5785 60.7955C52.1549 59.9701 53.433 59.3619 54.413 58.971C55.3929 58.58 56.2663 58.3193 57.0332 58.189C57.8001 58.0587 58.6096 57.9935 59.4617 57.9935C60.9955 57.9935 62.3802 58.3628 63.6157 59.1013C64.8513 59.8398 65.8312 60.8389 66.5555 62.0987C67.2798 63.315 67.6419 64.7269 67.6419 66.3342C67.6419 67.8546 67.2585 69.223 66.4916 70.4393C65.7673 71.6557 64.7448 72.6331 63.424 73.3716C62.1458 74.0667 60.6973 74.4142 59.0782 74.4142C57.3314 74.4142 55.7124 74.0232 54.2212 73.2413C52.73 72.4593 51.0258 70.9824 49.1086 68.8103L44.635 73.9581C46.254 76.5211 48.3204 78.4976 50.8341 79.8877Z" fill="#39A0FF"/>
<path fill-rule="evenodd" clip-rule="evenodd" d="M143.654 80.8L143.332 79.992L153.269 59.161C152.659 59.5149 152.032 59.833 151.386 60.1152C149.346 61.0309 147.305 61.4888 145.265 61.4888C142.204 61.4888 139.385 60.6808 136.808 59.0648C134.23 57.3949 132.163 55.2133 130.606 52.52C129.049 49.7728 128.27 46.7832 128.27 43.5512C128.27 39.7267 129.129 36.2792 130.847 33.2088C132.619 30.0845 135.036 27.6336 138.096 25.856C141.157 24.0245 144.594 23.1088 148.406 23.1088C151.145 23.1088 153.722 23.6205 156.139 24.644C158.555 25.6136 160.649 26.9872 162.421 28.7648C164.247 30.5424 165.67 32.5893 166.69 34.9056C167.764 37.168 168.301 39.6189 168.301 42.2584C168.301 43.7667 168.14 45.3557 167.818 47.0256C167.549 48.6416 167.093 50.4192 166.448 52.3584C165.858 54.2976 165.052 56.4523 164.032 58.8224C163.065 61.1387 161.857 63.7781 160.407 66.7408L153.642 80.8H143.654ZM152.756 51.1464C151.252 52.0083 149.534 52.4392 147.601 52.4392C145.882 52.4392 144.325 51.9813 142.929 51.0656C141.533 50.096 140.405 48.884 139.546 47.4296C138.741 45.9213 138.338 44.3053 138.338 42.5816C138.338 40.5347 138.741 38.7571 139.546 37.2488C140.352 35.6867 141.452 34.4747 142.849 33.6128C144.245 32.7509 145.856 32.32 147.681 32.32C149.668 32.32 151.413 32.7779 152.917 33.6936C154.42 34.5555 155.575 35.7675 156.38 37.3296C157.239 38.8917 157.669 40.6424 157.669 42.5816C157.669 44.4669 157.239 46.1368 156.38 47.5912C155.521 49.0456 154.313 50.2307 152.756 51.1464Z" fill="white"/>
<path d="M273.286 81.3656C269.42 81.3656 265.903 80.5307 262.735 78.8608C259.566 77.1371 256.962 74.6861 254.922 71.508L260.56 65.1248C262.976 67.8181 265.124 69.6496 267.003 70.6192C268.883 71.5888 270.923 72.0736 273.125 72.0736C275.165 72.0736 276.991 71.6427 278.602 70.7808C280.267 69.8651 281.555 68.6531 282.468 67.1448C283.435 65.6365 283.918 63.9397 283.918 62.0544C283.918 60.0613 283.462 58.3107 282.549 56.8024C281.636 55.2403 280.401 54.0013 278.844 53.0856C277.286 52.1699 275.541 51.712 273.608 51.712C272.534 51.712 271.514 51.7928 270.547 51.9544C269.581 52.116 268.48 52.4392 267.245 52.924C266.01 53.4088 264.399 54.1629 262.412 55.1864L257.419 48.3992L260.721 24.0784H291.811V33.3704H268.494L266.882 44.5406C268.082 44.0481 269.385 43.6375 270.789 43.3088C272.454 42.9317 274.038 42.7432 275.541 42.7432C279.032 42.7432 282.146 43.5512 284.885 45.1672C287.623 46.7832 289.798 49.0187 291.409 51.8736C293.02 54.6747 293.825 57.9067 293.825 61.5696C293.825 65.2864 292.912 68.6531 291.086 71.6696C289.314 74.6323 286.871 77.0024 283.757 78.78C280.642 80.5037 277.152 81.3656 273.286 81.3656Z" fill="white"/>
<path d="M353.438 81.608C349.411 81.608 345.706 80.9077 342.323 79.5072C338.94 78.1067 336.013 76.1136 333.543 73.528C331.073 70.8885 329.14 67.7912 327.744 64.236C326.402 60.6269 325.73 56.6947 325.73 52.4392C325.73 48.3453 326.455 44.5477 327.905 41.0464C329.355 37.5451 331.369 34.4747 333.946 31.8352C336.523 29.1957 339.53 27.1488 342.967 25.6944C346.404 24.24 350.109 23.5128 354.082 23.5128C356.821 23.5128 359.479 23.9168 362.056 24.7248C364.634 25.5328 366.996 26.664 369.144 28.1184C371.346 29.5189 373.145 31.1888 374.541 33.128L367.856 40.3192C365.761 38.1645 363.56 36.5216 361.251 35.3904C358.996 34.2592 356.606 33.6936 354.082 33.6936C351.612 33.6936 349.276 34.1515 347.075 35.0672C344.927 35.9829 343.048 37.2757 341.437 38.9456C339.879 40.6155 338.644 42.6085 337.732 44.9248C336.819 47.1872 336.362 49.7189 336.362 52.52C336.362 55.3749 336.792 57.9875 337.651 60.3576C338.564 62.6739 339.826 64.6669 341.437 66.3368C343.101 68.0067 345.061 69.2725 347.317 70.1344C349.625 70.9963 352.176 71.4272 354.968 71.4272C356.687 71.4272 358.378 71.2117 360.043 70.7808C361.707 70.296 363.264 69.5957 364.714 68.68C366.164 67.7643 367.453 66.7139 368.58 65.5288L373.735 73.8512C372.447 75.3056 370.728 76.6253 368.58 77.8104C366.433 78.9955 364.043 79.9381 361.412 80.6384C358.781 81.2848 356.123 81.608 353.438 81.608Z" fill="white"/>
<path fill-rule="evenodd" clip-rule="evenodd" d="M407.129 53.5704C407.129 51.2541 406.35 49.4496 404.793 48.1568C403.29 46.8101 401.33 46.1368 398.913 46.1368C396.658 46.1368 394.618 46.5947 392.792 47.5104C390.966 48.3723 389.275 49.7728 387.718 51.712L381.596 45.5712C384.12 42.8779 386.912 40.8309 389.973 39.4304C393.034 38.0299 396.336 37.3296 399.88 37.3296C403.263 37.3296 406.162 37.8683 408.579 38.9456C411.049 40.0229 412.955 41.6389 414.297 43.7936C415.64 45.8944 416.311 48.48 416.311 51.5504V80.8H407.129V76.2908C406.843 76.5631 406.547 76.8272 406.243 77.0832C404.632 78.4837 402.86 79.588 400.927 80.396C399.048 81.204 397.088 81.608 395.047 81.608C392.309 81.608 389.865 81.0693 387.718 79.992C385.57 78.9147 383.851 77.4333 382.563 75.548C381.328 73.6088 380.71 71.3464 380.71 68.7608C380.71 66.4984 381.113 64.5323 381.918 62.8624C382.724 61.1387 383.905 59.7112 385.462 58.58C387.073 57.4488 389.06 56.6139 391.423 56.0752C393.839 55.4827 396.604 55.1864 399.719 55.1864H407.129V53.5704ZM395.289 62.7008C396.416 62.4315 397.705 62.2968 399.155 62.2968H407.129V68.6293C406.655 69.2167 406.118 69.7722 405.518 70.296C404.283 71.3733 402.86 72.2083 401.249 72.8008C399.692 73.3933 398.027 73.6896 396.255 73.6896C395.02 73.6896 393.946 73.4741 393.034 73.0432C392.121 72.6123 391.396 72.0197 390.859 71.2656C390.322 70.4576 390.053 69.5149 390.053 68.4376C390.053 67.4141 390.241 66.5523 390.617 65.852C390.993 65.0979 391.584 64.4515 392.389 63.9128C393.195 63.3741 394.161 62.9701 395.289 62.7008Z" fill="white"/>
<path d="M426.776 80.8V38.2184H436.441L436.529 45.6377C437.038 44.6734 437.653 43.7624 438.374 42.9048C439.824 41.1811 441.489 39.8344 443.368 38.8648C445.301 37.8413 447.288 37.3296 449.328 37.3296C450.241 37.3296 451.1 37.4104 451.906 37.572C452.765 37.7336 453.463 37.9221 454 38.1376L451.423 48.9648C450.778 48.6416 450.026 48.3992 449.167 48.2376C448.362 48.0221 447.53 47.9144 446.67 47.9144C445.274 47.9144 443.959 48.1837 442.724 48.7224C441.542 49.2072 440.495 49.9075 439.582 50.8232C438.723 51.7389 438.025 52.8163 437.488 54.0552C436.951 55.2403 436.683 56.56 436.683 58.0144V80.8H426.776Z" fill="white"/>
<path d="M181.317 27.3912H191.143V38.2184H200.406V47.4296H191.143V80.8H181.317V47.4296H172.94V38.2184H181.317V27.3912Z" fill="#717171"/>
<path fill-rule="evenodd" clip-rule="evenodd" d="M226.888 81.608C222.646 81.608 218.86 80.6653 215.531 78.78C212.202 76.8408 209.571 74.2013 207.638 70.8616C205.758 67.5219 204.819 63.7243 204.819 59.4688C204.819 55.2133 205.758 51.4157 207.638 48.076C209.571 44.7363 212.202 42.1237 215.531 40.2384C218.86 38.2992 222.646 37.3296 226.888 37.3296C231.077 37.3296 234.835 38.2992 238.164 40.2384C241.494 42.1237 244.098 44.7363 245.977 48.076C247.91 51.4157 248.877 55.2133 248.877 59.4688C248.877 63.7243 247.91 67.5219 245.977 70.8616C244.098 74.2013 241.494 76.8408 238.164 78.78C234.835 80.6653 231.077 81.608 226.888 81.608ZM233.09 71.104C231.264 72.2352 229.197 72.8008 226.888 72.8008C224.579 72.8008 222.485 72.2352 220.606 71.104C218.78 69.9189 217.357 68.3299 216.337 66.3368C215.316 64.2899 214.806 62.0005 214.806 59.4688C214.806 56.9371 215.316 54.6747 216.337 52.6816C217.357 50.6347 218.78 49.0456 220.606 47.9144C222.485 46.7293 224.579 46.1368 226.888 46.1368C229.197 46.1368 231.264 46.7024 233.09 47.8336C234.916 48.9648 236.339 50.5539 237.359 52.6008C238.433 54.5939 238.943 56.8832 238.889 59.4688C238.943 62.0005 238.433 64.2899 237.359 66.3368C236.339 68.3299 234.916 69.9189 233.09 71.104Z" fill="#717171"/>
<path fill-rule="evenodd" clip-rule="evenodd" d="M27.4295 63.5323L27.1739 62.8806L35.0586 46.0815C34.5748 46.3668 34.0768 46.6234 33.5647 46.851C31.9457 47.5895 30.3267 47.9587 28.7077 47.9587C26.2792 47.9587 24.0424 47.3071 21.9974 46.0039C19.9523 44.6572 18.312 42.8979 17.0764 40.7258C15.8409 38.5103 15.2231 36.0994 15.2231 33.4929C15.2231 30.4086 15.9048 27.6284 17.2682 25.1523C18.6741 22.6327 20.5914 20.6561 23.0199 19.2226C25.4484 17.7456 28.1751 17.0071 31.2001 17.0071C33.373 17.0071 35.418 17.4198 37.3353 18.2452C39.2525 19.0271 40.9141 20.1348 42.3201 21.5684C43.7687 23.0019 44.8977 24.6527 45.7072 26.5206C46.5593 28.3452 46.9854 30.3217 46.9854 32.4503C46.9854 33.6667 46.8576 34.9482 46.6019 36.2948C46.3889 37.5981 46.0268 39.0316 45.5155 40.5955C45.0468 42.1593 44.4078 43.897 43.5983 45.8084C42.8314 47.6763 41.8727 49.805 40.7224 52.1942L35.3541 63.5323H27.4295ZM34.6511 39.6181C33.4582 40.3131 32.0948 40.6606 30.561 40.6606C29.1977 40.6606 27.9621 40.2914 26.8544 39.5529C25.7466 38.771 24.8519 37.7935 24.1702 36.6206C23.5311 35.4043 23.2116 34.1011 23.2116 32.711C23.2116 31.0602 23.5311 29.6267 24.1702 28.4103C24.8093 27.1505 25.6827 26.1731 26.7905 25.4781C27.8982 24.783 29.1764 24.4355 30.6249 24.4355C32.2013 24.4355 33.586 24.8047 34.779 25.5432C35.9719 26.2383 36.8879 27.2157 37.527 28.4755C38.2087 29.7353 38.5495 31.1471 38.5495 32.711C38.5495 34.2314 38.2087 35.5781 37.527 36.751C36.8453 37.9239 35.8867 38.8796 34.6511 39.6181Z" fill="white"/>
<path d="M59.2061 81.9077C56.1385 81.9077 53.3478 81.2344 50.8341 79.8877C48.3204 78.4976 46.254 76.5211 44.635 73.9581L49.1086 68.8103C51.0258 70.9824 52.73 72.4593 54.2212 73.2413C55.7124 74.0232 57.3314 74.4142 59.0782 74.4142C60.6973 74.4142 62.1458 74.0667 63.424 73.3716C64.7448 72.6331 65.7673 71.6557 66.4916 70.4393C67.2585 69.223 67.6419 67.8546 67.6419 66.3342C67.6419 64.7269 67.2798 63.315 66.5555 62.0987C65.8312 60.8389 64.8513 59.8398 63.6157 59.1013C62.3802 58.3628 60.9955 57.9935 59.4617 57.9935C58.6096 57.9935 57.8001 58.0587 57.0332 58.189C56.2663 58.3193 55.3929 58.58 54.413 58.971C53.433 59.3619 52.1549 59.9701 50.5785 60.7955L46.6162 55.3219L49.2364 35.7084H73.9049V43.2019H55.4043L54.125 52.2101C55.0773 51.813 56.1107 51.4819 57.2249 51.2168C58.5457 50.9127 59.8025 50.7606 60.9955 50.7606C63.7648 50.7606 66.2359 51.4123 68.4088 52.7155C70.5817 54.0187 72.3072 55.8215 73.5854 58.1239C74.8635 60.3828 75.5026 62.9892 75.5026 65.9432C75.5026 68.9406 74.7783 71.6557 73.3297 74.0884C71.9238 76.4776 69.9852 78.389 67.5141 79.8226C65.043 81.2127 62.2737 81.9077 59.2061 81.9077Z" fill="white"/>
<path d="M77 1.52588e-05L454 1.62125e-05V10H90.5C84.5 3 77 1.52588e-05 77 1.52588e-05Z" fill="#B5DCFF"/>
<path d="M105 91H454V101H105V91Z" fill="#B5DCFF"/>
</svg>
