<svg xmlns="http://www.w3.org/2000/svg" width="33" height="33" viewBox="0 0 33 33">
  <g id="Group_262" data-name="Group 262" transform="translate(-49 -3076)">
    <circle id="Ellipse_104" data-name="Ellipse 104" cx="16.5" cy="16.5" r="16.5" transform="translate(49 3076)" fill="#fff"/>
    <path id="Path_39" data-name="Path 39" d="M43.911,17.141A10.792,10.792,0,0,0,54.8,6.252V5.733a8.429,8.429,0,0,0,1.867-1.97,8.609,8.609,0,0,1-2.178.622,4.035,4.035,0,0,0,1.659-2.074,9.512,9.512,0,0,1-2.385.933A3.7,3.7,0,0,0,50.963,2a3.9,3.9,0,0,0-3.837,3.837,2.022,2.022,0,0,0,.1.83,10.722,10.722,0,0,1-7.881-4.044,3.971,3.971,0,0,0-.519,1.97,4.12,4.12,0,0,0,1.659,3.215,3.5,3.5,0,0,1-1.763-.519h0a3.79,3.79,0,0,0,3.111,3.733,3.2,3.2,0,0,1-1.037.1,1.765,1.765,0,0,1-.726-.1,3.929,3.929,0,0,0,3.63,2.7,7.83,7.83,0,0,1-4.77,1.659,2.871,2.871,0,0,1-.933-.1,9.788,9.788,0,0,0,5.911,1.867" transform="translate(17.967 3082.93)" fill="#123374" fill-rule="evenodd"/>
  </g>
</svg>
