<svg xmlns="http://www.w3.org/2000/svg" width="33" height="33" viewBox="0 0 33 33">
  <g id="Group_265" data-name="Group 265" transform="translate(-309 -3076)">
    <circle id="Ellipse_107" data-name="Ellipse 107" cx="16.5" cy="16.5" r="16.5" transform="translate(309 3076)" fill="#fff"/>
    <g id="youtube-svgrepo-com" transform="translate(316.164 3085.711)">
      <path id="Path_303" data-name="Path 303" d="M15.109,67.393H3.961A3.973,3.973,0,0,0,0,71.378v5.608a3.973,3.973,0,0,0,3.961,3.985H15.109a3.973,3.973,0,0,0,3.961-3.985V71.378A3.973,3.973,0,0,0,15.109,67.393Zm-2.678,7.062-5.215,2.5a.209.209,0,0,1-.3-.19V71.606a.209.209,0,0,1,.3-.188l5.215,2.659A.211.211,0,0,1,12.431,74.455Z" transform="translate(0 -67.393)" fill="#123374"/>
    </g>
  </g>
</svg>
