<svg width="356" height="369" viewBox="0 0 356 369" fill="none" xmlns="http://www.w3.org/2000/svg">
<path d="M111.633 148.552C117.236 148.552 122.216 147.283 126.573 144.743C131.087 142.045 134.588 138.554 137.078 134.268C139.568 129.983 140.813 125.063 140.813 119.508C140.813 113.795 139.568 108.637 137.078 104.034C134.744 99.4316 131.398 95.8606 127.04 93.3213C122.683 90.6232 117.625 89.2742 111.866 89.2742C106.575 89.2742 101.906 90.5439 97.8599 93.0832C93.8135 95.6226 90.6232 99.1935 88.2887 103.796C85.9543 108.24 84.7871 113.477 84.7871 119.508C84.7871 124.587 85.9543 129.348 88.2887 133.792C90.7788 138.077 94.047 141.648 98.0933 144.505C102.14 147.203 106.653 148.552 111.633 148.552Z" fill="#39A0FF"/>
<path fill-rule="evenodd" clip-rule="evenodd" d="M0 0H180.918C277.613 0 356 79.9388 356 178.548V369H175.082C78.3869 369 0 289.061 0 190.452V0ZM99.2605 229.732L100.194 232.113H129.141L148.75 190.69C152.952 181.961 156.454 174.184 159.255 167.359C162.212 160.376 164.547 154.028 166.259 148.314C168.126 142.601 169.449 137.363 170.227 132.602C171.161 127.682 171.628 123 171.628 118.556C171.628 110.779 170.071 103.558 166.959 96.8923C164.002 90.0677 159.878 84.0368 154.586 78.7993C149.451 73.5619 143.381 69.5148 136.378 66.6581C129.375 63.6426 121.904 62.1348 113.967 62.1348C102.918 62.1348 92.9576 64.8329 84.0868 70.229C75.2159 75.4665 68.2127 82.6877 63.0769 91.8929C58.0968 100.939 55.6068 111.097 55.6068 122.365C55.6068 131.888 57.8634 140.696 62.3766 148.79C66.8898 156.726 72.8815 163.154 80.3517 168.074C87.8219 172.835 95.9923 175.215 104.863 175.215C110.777 175.215 116.691 173.866 122.605 171.168C124.476 170.337 126.295 169.4 128.062 168.357L99.2605 229.732ZM185.686 291.867C194.868 296.787 205.062 299.247 216.267 299.247C227.473 299.247 237.588 296.708 246.615 291.629C255.641 286.392 262.722 279.408 267.858 270.679C273.149 261.792 275.795 251.872 275.795 240.921C275.795 230.129 273.461 220.606 268.792 212.354C264.123 203.942 257.82 197.355 249.883 192.594C241.946 187.833 232.919 185.452 222.804 185.452C218.446 185.452 213.855 186.008 209.031 187.119C204.96 188.087 201.186 189.297 197.707 190.748L202.38 157.837H269.959V130.459H179.85L170.279 202.117L184.753 222.114C190.511 219.099 195.18 216.877 198.759 215.448C202.339 214.02 205.529 213.068 208.33 212.592C211.132 212.115 214.088 211.877 217.201 211.877C222.804 211.877 227.862 213.226 232.375 215.925C236.888 218.623 240.467 222.273 243.113 226.875C245.759 231.319 247.082 236.477 247.082 242.35C247.082 247.905 245.681 252.904 242.88 257.348C240.234 261.792 236.499 265.363 231.674 268.061C227.006 270.6 221.714 271.87 215.8 271.87C209.42 271.87 203.506 270.441 198.059 267.584C192.612 264.728 186.387 259.332 179.383 251.396L163.042 270.203C168.956 279.567 176.504 286.788 185.686 291.867Z" fill="#39A0FF"/>
<path fill-rule="evenodd" clip-rule="evenodd" d="M100.194 232.113L99.2605 229.732L128.062 168.357C126.295 169.4 124.476 170.337 122.605 171.168C116.691 173.866 110.777 175.215 104.863 175.215C95.9923 175.215 87.8219 172.835 80.3517 168.074C72.8815 163.154 66.8898 156.726 62.3766 148.79C57.8634 140.696 55.6068 131.888 55.6068 122.365C55.6068 111.097 58.0968 100.939 63.0769 91.8929C68.2127 82.6877 75.2159 75.4665 84.0868 70.229C92.9576 64.8329 102.918 62.1348 113.967 62.1348C121.904 62.1348 129.375 63.6426 136.378 66.6581C143.381 69.5148 149.451 73.5619 154.586 78.7993C159.878 84.0368 164.002 90.0677 166.959 96.8923C170.071 103.558 171.628 110.779 171.628 118.556C171.628 123 171.161 127.682 170.227 132.602C169.449 137.363 168.126 142.601 166.259 148.314C164.547 154.028 162.212 160.376 159.255 167.359C156.454 174.184 152.952 181.961 148.75 190.69L129.141 232.113H100.194ZM126.573 144.743C122.216 147.283 117.236 148.552 111.633 148.552C106.653 148.552 102.14 147.203 98.0933 144.505C94.047 141.648 90.7788 138.077 88.2887 133.792C85.9543 129.348 84.7871 124.587 84.7871 119.508C84.7871 113.477 85.9543 108.24 88.2887 103.796C90.6232 99.1935 93.8135 95.6226 97.8599 93.0832C101.906 90.5439 106.575 89.2742 111.866 89.2742C117.625 89.2742 122.683 90.6232 127.04 93.3213C131.398 95.8606 134.744 99.4316 137.078 104.034C139.568 108.637 140.813 113.795 140.813 119.508C140.813 125.063 139.568 129.983 137.078 134.268C134.588 138.554 131.087 142.045 126.573 144.743Z" fill="white"/>
<path d="M216.267 299.247C205.062 299.247 194.868 296.787 185.686 291.867C176.504 286.788 168.956 279.567 163.042 270.203L179.383 251.396C186.387 259.332 192.612 264.728 198.059 267.584C203.506 270.441 209.42 271.87 215.8 271.87C221.714 271.87 227.006 270.6 231.674 268.061C236.499 265.363 240.234 261.792 242.88 257.348C245.681 252.904 247.082 247.905 247.082 242.35C247.082 236.477 245.759 231.319 243.113 226.875C240.467 222.273 236.888 218.623 232.375 215.925C227.862 213.226 222.804 211.877 217.201 211.877C214.088 211.877 211.132 212.115 208.33 212.592C205.529 213.068 202.339 214.02 198.759 215.448C195.18 216.877 190.511 219.099 184.753 222.114L170.279 202.117L179.85 130.459H269.959V157.837H202.38L197.707 190.748C201.186 189.297 204.96 188.087 209.031 187.119C213.855 186.008 218.446 185.452 222.804 185.452C232.919 185.452 241.946 187.833 249.883 192.594C257.82 197.355 264.123 203.942 268.792 212.354C273.461 220.606 275.795 230.129 275.795 240.921C275.795 251.872 273.149 261.792 267.858 270.679C262.722 279.408 255.641 286.392 246.615 291.629C237.588 296.708 227.473 299.247 216.267 299.247Z" fill="white"/>
</svg>
